<svg width="24" height="24" viewBox="0 0 24 24" fill="none" xmlns="http://www.w3.org/2000/svg">
<g clip-path="url(#clip0_823_4537)">
<path d="M3.49313 22.566H1.79256L2.99507 21.3635C3.64345 20.7151 4.04834 19.8718 4.15719 18.957C2.46527 17.8467 1.22806 16.3859 0.565777 14.7106C-0.0960317 13.0366 -0.179198 11.1939 0.325294 9.38149C0.93061 7.20681 2.35036 5.22467 4.32292 3.80014C6.46646 2.25219 9.13492 1.43396 12.0399 1.43396C15.6993 1.43396 18.7839 2.48535 20.9599 4.47439C22.9202 6.26634 23.9998 8.68343 23.9998 11.2805C23.9998 12.5422 23.7428 13.7699 23.2362 14.9294C22.7119 16.1293 21.9441 17.1977 20.9543 18.1048C18.7754 20.1017 15.6928 21.1572 12.0398 21.1572C10.6838 21.1572 9.26871 20.9762 8.00534 20.644C6.8095 21.8707 5.18905 22.566 3.49313 22.566ZM12.0399 2.84276C6.21499 2.84276 2.6408 6.31654 1.68249 9.75928C0.77691 13.0127 2.11185 16.0868 5.25348 17.9827L5.6045 18.1945L5.5937 18.6044C5.57229 19.4156 5.37891 20.1969 5.03276 20.9032C5.87565 20.618 6.64049 20.1009 7.23942 19.3933L7.53724 19.0415L7.9789 19.1736C9.21832 19.5443 10.6605 19.7484 12.0399 19.7484C19.2892 19.7484 22.591 15.3589 22.591 11.2805C22.591 9.08386 21.6741 7.03602 20.0093 5.51423C18.0974 3.76656 15.3416 2.84276 12.0399 2.84276Z" fill="black"/>
</g>
<defs>
<clipPath id="clip0_823_4537">
<rect width="24" height="24" fill="white"/>
</clipPath>
</defs>
</svg>
